# xmcd
#
# Track frame offsets:
#	150
#	24178
#	45712
#	69248
#	88517
#	114199
#	130731
#	152857
#	177208
#	202451
#	228187
#	269336
#	285467
#
# Disc length: 4150 seconds
#
# Revision: 1
# Processed by: cddbd v1.5.2PL0 Copyright (c) Steve Scherf et al.
# Submitted via: audiograbber 1.83.01
#
DISCID=a910340d
DTITLE=Lucinda Williams - West
DYEAR=2007
DGENRE=Country
TTITLE0=Are You Alright?
TTITLE1=Mama You Sweet
TTITLE2=Learning How To Live
TTITLE3=Fancy Funeral
TTITLE4=Unsuffer Me
TTITLE5=Everything Has Changed
TTITLE6=Come On
TTITLE7=Where Is My Love?
TTITLE8=Rescue
TTITLE9=What If
TTITLE10=Wrap My Head Around That
TTITLE11=Words
TTITLE12=West
EXTD=
EXTT0=
EXTT1=
EXTT2=
EXTT3=
EXTT4=
EXTT5=
EXTT6=
EXTT7=
EXTT8=
EXTT9=
EXTT10=
EXTT11=
EXTT12=
PLAYORDER=
